# xmcd
#
# Track frame offsets: 
#        150
#        22257
#        40710
#        56950
#        83090
#        107565
#        144902
#        160595
#        184765
#        214007
#        239215
#        280442
#
# Disc length: 4166 seconds
#
# Revision: 10
# Processed by: cddbd v1.5.2PL0 Copyright (c) Steve Scherf et al.
# Submitted via: ExactAudioCopyFreeDBPlugin 1.0
#
DISCID=ab10440c
DTITLE=BOB DYLAN - MTV Unplugged [Live]
DYEAR=1995
DGENRE=Blues
TTITLE0=Tombstone Blues  [live unplugged]
TTITLE1=Shooting Star  [live unplugged]
TTITLE2=All Along The Watchtower  [live unplugged]
TTITLE3=The Times They Are A-Changin'  [live unplugged]
TTITLE4=John Brown  [live unplugged]
TTITLE5=Desolation Row  [live unplugged]
TTITLE6=Rainy Day Women #12 and 35  [live unplugged]
TTITLE7=Love Minus Zero - No Limit  [live unplugged]
TTITLE8=Dignity  [live unplugged]
TTITLE9=Knockin' On Heaven's Door  [live unplugged]
TTITLE10=Like A Rolling Stone  [live unplugged]
TTITLE11=With God On Our Side  [live unplugged]
EXTD=
EXTT0=
EXTT1=
EXTT2=
EXTT3=
EXTT4=
EXTT5=
EXTT6=
EXTT7=
EXTT8=
EXTT9=
EXTT10=
EXTT11=
PLAYORDER=
